<?xml version="1.0" encoding="UTF-8" standalone="no"?>
<svg
   width="1920"
   zoomAndPan="magnify"
   viewBox="0 0 1440 809.999993"
   height="1080"
   preserveAspectRatio="xMidYMid meet"
   version="1.0"
   id="svg40"
   sodipodi:docname="cb_logo.svg"
   inkscape:version="1.4.3 (fcd0343856, 2026-01-01)"
   xmlns:inkscape="http://www.inkscape.org/namespaces/inkscape"
   xmlns:sodipodi="http://sodipodi.sourceforge.net/DTD/sodipodi-0.dtd"
   xmlns="http://www.w3.org/2000/svg"
   xmlns:svg="http://www.w3.org/2000/svg">
  <sodipodi:namedview
     id="namedview40"
     pagecolor="#ffffff"
     bordercolor="#000000"
     borderopacity="0.25"
     inkscape:showpageshadow="2"
     inkscape:pageopacity="0.0"
     inkscape:pagecheckerboard="0"
     inkscape:deskcolor="#d1d1d1"
     inkscape:zoom="0.91135154"
     inkscape:cx="688.53782"
     inkscape:cy="467.98626"
     inkscape:window-width="2048"
     inkscape:window-height="1211"
     inkscape:window-x="0"
     inkscape:window-y="32"
     inkscape:window-maximized="1"
     inkscape:current-layer="g39" />
  <defs
     id="defs13">
    <g
       id="g1" />
    <clipPath
       id="4ae63e3028">
      <path
         d="M 0.878906 0.308594 L 675.878906 0.308594 L 675.878906 675.308594 L 0.878906 675.308594 Z M 0.878906 0.308594 "
         clip-rule="nonzero"
         id="path1" />
    </clipPath>
    <clipPath
       id="3159ef957d">
      <path
         d="M 11.679688 0.308594 L 665.078125 0.308594 C 667.945312 0.308594 670.691406 1.449219 672.714844 3.472656 C 674.742188 5.5 675.878906 8.246094 675.878906 11.109375 L 675.878906 664.507812 C 675.878906 667.375 674.742188 670.121094 672.714844 672.144531 C 670.691406 674.171875 667.945312 675.308594 665.078125 675.308594 L 11.679688 675.308594 C 8.816406 675.308594 6.070312 674.171875 4.042969 672.144531 C 2.019531 670.121094 0.878906 667.375 0.878906 664.507812 L 0.878906 11.109375 C 0.878906 8.246094 2.019531 5.5 4.042969 3.472656 C 6.070312 1.449219 8.816406 0.308594 11.679688 0.308594 Z M 11.679688 0.308594 "
         clip-rule="nonzero"
         id="path2" />
    </clipPath>
    <clipPath
       id="08d2392af4">
      <path
         d="M 0.878906 0.308594 L 675.878906 0.308594 L 675.878906 675.308594 L 0.878906 675.308594 Z M 0.878906 0.308594 "
         clip-rule="nonzero"
         id="path3" />
    </clipPath>
    <clipPath
       id="e09d19ac94">
      <path
         d="M 11.679688 0.308594 L 665.078125 0.308594 C 667.945312 0.308594 670.691406 1.449219 672.714844 3.472656 C 674.742188 5.5 675.878906 8.246094 675.878906 11.109375 L 675.878906 664.507812 C 675.878906 667.375 674.742188 670.121094 672.714844 672.144531 C 670.691406 674.171875 667.945312 675.308594 665.078125 675.308594 L 11.679688 675.308594 C 8.816406 675.308594 6.070312 674.171875 4.042969 672.144531 C 2.019531 670.121094 0.878906 667.375 0.878906 664.507812 L 0.878906 11.109375 C 0.878906 8.246094 2.019531 5.5 4.042969 3.472656 C 6.070312 1.449219 8.816406 0.308594 11.679688 0.308594 Z M 11.679688 0.308594 "
         clip-rule="nonzero"
         id="path4" />
    </clipPath>
    <clipPath
       id="9ce0356751">
      <rect
         x="0"
         width="676"
         y="0"
         height="676"
         id="rect4" />
    </clipPath>
    <clipPath
       id="1d310f6f79">
      <path
         d="M 69.730469 67.808594 L 609.730469 67.808594 L 609.730469 608 L 69.730469 608 Z M 69.730469 67.808594 "
         clip-rule="nonzero"
         id="path5" />
    </clipPath>
    <clipPath
       id="23eef7d8bd">
      <path
         d="M 78.503906 67.808594 L 600.957031 67.808594 C 603.28125 67.808594 605.515625 68.734375 607.160156 70.378906 C 608.804688 72.027344 609.730469 74.257812 609.730469 76.585938 L 609.730469 599.097656 C 609.730469 601.421875 608.804688 603.65625 607.160156 605.300781 C 605.515625 606.945312 603.28125 607.871094 600.957031 607.871094 L 78.503906 607.871094 C 76.179688 607.871094 73.945312 606.945312 72.300781 605.300781 C 70.65625 603.65625 69.730469 601.421875 69.730469 599.097656 L 69.730469 76.585938 C 69.730469 74.257812 70.65625 72.027344 72.300781 70.378906 C 73.945312 68.734375 76.179688 67.808594 78.503906 67.808594 Z M 78.503906 67.808594 "
         clip-rule="nonzero"
         id="path6" />
    </clipPath>
    <clipPath
       id="2c4ad39dd8">
      <path
         d="M 0.730469 0.808594 L 540.730469 0.808594 L 540.730469 540.878906 L 0.730469 540.878906 Z M 0.730469 0.808594 "
         clip-rule="nonzero"
         id="path7" />
    </clipPath>
    <clipPath
       id="a1e67db628">
      <path
         d="M 9.503906 0.808594 L 531.957031 0.808594 C 534.28125 0.808594 536.515625 1.734375 538.160156 3.378906 C 539.804688 5.027344 540.730469 7.257812 540.730469 9.585938 L 540.730469 532.097656 C 540.730469 534.421875 539.804688 536.65625 538.160156 538.300781 C 536.515625 539.945312 534.28125 540.871094 531.957031 540.871094 L 9.503906 540.871094 C 7.179688 540.871094 4.945312 539.945312 3.300781 538.300781 C 1.65625 536.65625 0.730469 534.421875 0.730469 532.097656 L 0.730469 9.585938 C 0.730469 7.257812 1.65625 5.027344 3.300781 3.378906 C 4.945312 1.734375 7.179688 0.808594 9.503906 0.808594 Z M 9.503906 0.808594 "
         clip-rule="nonzero"
         id="path8" />
    </clipPath>
    <clipPath
       id="525fbebfc7">
      <rect
         x="0"
         width="541"
         y="0"
         height="541"
         id="rect8" />
    </clipPath>
    <clipPath
       id="a77ca5629a">
      <path
         d="M 0.878906 215.777344 L 675.878906 215.777344 L 675.878906 440.554688 L 0.878906 440.554688 Z M 0.878906 215.777344 "
         clip-rule="nonzero"
         id="path9" />
    </clipPath>
    <clipPath
       id="8cac7ed2c0">
      <path
         d="M 0.878906 0.777344 L 675.878906 0.777344 L 675.878906 225.554688 L 0.878906 225.554688 Z M 0.878906 0.777344 "
         clip-rule="nonzero"
         id="path10" />
    </clipPath>
    <clipPath
       id="b60ab78dde">
      <rect
         x="0"
         width="676"
         y="0"
         height="226"
         id="rect10" />
    </clipPath>
    <clipPath
       id="b916c2f18d">
      <path
         d="M 225.992188 0.308594 L 450.765625 0.308594 L 450.765625 675.308594 L 225.992188 675.308594 Z M 225.992188 0.308594 "
         clip-rule="nonzero"
         id="path11" />
    </clipPath>
    <clipPath
       id="0459c4d658">
      <path
         d="M 0.992188 0.308594 L 225.765625 0.308594 L 225.765625 675.308594 L 0.992188 675.308594 Z M 0.992188 0.308594 "
         clip-rule="nonzero"
         id="path12" />
    </clipPath>
    <clipPath
       id="2535e1f2bf">
      <rect
         x="0"
         width="226"
         y="0"
         height="676"
         id="rect12" />
    </clipPath>
    <clipPath
       id="fc123bd4da">
      <rect
         x="0"
         width="677"
         y="0"
         height="676"
         id="rect13" />
    </clipPath>
  </defs>
  <g
     transform="matrix(1, 0, 0, 1, 381, 67)"
     id="g40">
    <g
       clip-path="url(#fc123bd4da)"
       id="g39">
      <g
         id="g41">
        <g
           clip-path="url(#4ae63e3028)"
           id="g18">
          <g
             clip-path="url(#3159ef957d)"
             id="g17">
            <g
               transform="matrix(1, 0, 0, 1, 0, 0.000000000000042633)"
               id="g16">
              <g
                 clip-path="url(#9ce0356751)"
                 id="g15">
                <g
                   clip-path="url(#08d2392af4)"
                   id="g14">
                  <g
                     clip-path="url(#e09d19ac94)"
                     id="g13">
                    <path
                       fill="#333230"
                       d="M 0.878906 0.308594 L 675.878906 0.308594 L 675.878906 675.308594 L 0.878906 675.308594 Z M 0.878906 0.308594 "
                       fill-opacity="1"
                       fill-rule="nonzero"
                       id="path13" />
                  </g>
                </g>
              </g>
            </g>
          </g>
        </g>
        <g
           clip-path="url(#1d310f6f79)"
           id="g24">
          <g
             clip-path="url(#23eef7d8bd)"
             id="g23">
            <g
               transform="matrix(1, 0, 0, 1, 69, 67)"
               id="g22">
              <g
                 clip-path="url(#525fbebfc7)"
                 id="g21">
                <g
                   clip-path="url(#2c4ad39dd8)"
                   id="g20">
                  <g
                     clip-path="url(#a1e67db628)"
                     id="g19">
                    <path
                       fill="#fefefe"
                       d="M 0.730469 0.808594 L 540.730469 0.808594 L 540.730469 540.808594 L 0.730469 540.808594 Z M 0.730469 0.808594 "
                       fill-opacity="1"
                       fill-rule="nonzero"
                       id="path18" />
                  </g>
                </g>
              </g>
            </g>
          </g>
        </g>
        <g
           clip-path="url(#a77ca5629a)"
           id="g28">
          <g
             transform="matrix(1, 0, 0, 1, 0, 215)"
             id="g27">
            <g
               clip-path="url(#b60ab78dde)"
               id="g26">
              <g
                 clip-path="url(#8cac7ed2c0)"
                 id="g25">
                <path
                   fill="#fefefe"
                   d="M 0.878906 0.777344 L 676.082031 0.777344 L 676.082031 225.554688 L 0.878906 225.554688 Z M 0.878906 0.777344 "
                   fill-opacity="1"
                   fill-rule="nonzero"
                   id="path24" />
              </g>
            </g>
          </g>
        </g>
        <g
           clip-path="url(#b916c2f18d)"
           id="g32">
          <g
             transform="matrix(1, 0, 0, 1, 225, 0.000000000000042633)"
             id="g31">
            <g
               clip-path="url(#2535e1f2bf)"
               id="g30">
              <g
                 clip-path="url(#0459c4d658)"
                 id="g29">
                <path
                   fill="#fefefe"
                   d="M 225.765625 0.308594 L 225.765625 675.511719 L 0.992188 675.511719 L 0.992188 0.308594 Z M 225.765625 0.308594 "
                   fill-opacity="1"
                   fill-rule="nonzero"
                   id="path28" />
              </g>
            </g>
          </g>
        </g>
        <g
           fill="#333230"
           fill-opacity="1"
           id="g35">
          <g
             transform="translate(104.614434, 486.636178)"
             id="g34">
            <g
               id="g33">
              <path
                 d="M 204.984375 -99.09375 L 289.703125 -99.09375 C 283.847656 -79.113281 274.191406 -61.398438 260.734375 -45.953125 C 247.285156 -30.503906 231.234375 -18.316406 212.578125 -9.390625 C 193.929688 -0.460938 173.6875 4 151.84375 4 C 132.132812 4 113.550781 0.269531 96.09375 -7.1875 C 78.644531 -14.644531 63.328125 -24.96875 50.140625 -38.15625 C 36.960938 -51.34375 26.640625 -66.59375 19.171875 -83.90625 C 11.710938 -101.226562 7.984375 -119.878906 7.984375 -139.859375 C 7.984375 -159.835938 11.710938 -178.484375 19.171875 -195.796875 C 26.640625 -213.117188 36.960938 -228.367188 50.140625 -241.546875 C 63.328125 -254.734375 78.644531 -265.054688 96.09375 -272.515625 C 113.550781 -279.984375 132.132812 -283.71875 151.84375 -283.71875 C 173.6875 -283.71875 193.929688 -279.253906 212.578125 -270.328125 C 231.234375 -261.398438 247.285156 -249.210938 260.734375 -233.765625 C 274.191406 -218.316406 283.847656 -200.734375 289.703125 -181.015625 L 204.984375 -181.015625 C 198.859375 -188.742188 191.203125 -195.003906 182.015625 -199.796875 C 172.828125 -204.585938 162.769531 -206.984375 151.84375 -206.984375 C 139.59375 -206.984375 128.40625 -203.921875 118.28125 -197.796875 C 108.15625 -191.671875 100.09375 -183.546875 94.09375 -173.421875 C 88.101562 -163.296875 85.109375 -152.109375 85.109375 -139.859375 C 85.109375 -127.597656 88.101562 -116.40625 94.09375 -106.28125 C 100.09375 -96.164062 108.15625 -88.039062 118.28125 -81.90625 C 128.40625 -75.78125 139.59375 -72.71875 151.84375 -72.71875 C 162.769531 -72.71875 172.828125 -75.113281 182.015625 -79.90625 C 191.203125 -84.707031 198.859375 -91.101562 204.984375 -99.09375 Z M 204.984375 -99.09375 "
                 id="path32" />
            </g>
          </g>
        </g>
        <g
           fill="#333230"
           fill-opacity="1"
           id="g38">
          <g
             transform="translate(402.315892, 486.636178)"
             id="g37">
            <g
               id="g36">
              <path
                 d="M 88.703125 -154.640625 C 102.828125 -154.640625 115.75 -151.175781 127.46875 -144.25 C 139.1875 -137.320312 148.507812 -128 155.4375 -116.28125 C 162.363281 -104.5625 165.828125 -91.640625 165.828125 -77.515625 C 165.828125 -63.128906 162.363281 -50.078125 155.4375 -38.359375 C 148.507812 -26.640625 139.1875 -17.316406 127.46875 -10.390625 C 115.75 -3.460938 102.828125 0 88.703125 0 L 11.984375 0 L 11.984375 -279.71875 L 88.703125 -279.71875 C 100.160156 -279.71875 110.617188 -276.921875 120.078125 -271.328125 C 129.535156 -265.734375 137.0625 -258.207031 142.65625 -248.75 C 148.25 -239.289062 151.046875 -228.832031 151.046875 -217.375 C 151.046875 -205.65625 148.25 -195.066406 142.65625 -185.609375 C 137.0625 -176.148438 129.535156 -168.625 120.078125 -163.03125 C 110.617188 -157.4375 100.160156 -154.640625 88.703125 -154.640625 Z M 88.703125 -154.640625 "
                 id="path35" />
            </g>
          </g>
        </g>
      </g>
    </g>
  </g>
</svg>
