<svg xmlns="http://www.w3.org/2000/svg" xmlns:xlink="http://www.w3.org/1999/xlink" width="1173" zoomAndPan="magnify" viewBox="0 0 879.75 892.499973" height="1190" preserveAspectRatio="xMidYMid meet" version="1.0"><defs><g/><clipPath id="f2740ec0ac"><path d="M 63.5625 88.035156 L 153.367188 88.035156 L 153.367188 353 L 63.5625 353 Z M 63.5625 88.035156 " clip-rule="nonzero"/></clipPath><clipPath id="ba2e49dee0"><path d="M 75.558594 88.035156 L 141.371094 88.035156 C 144.554688 88.035156 147.605469 89.300781 149.851562 91.550781 C 152.101562 93.796875 153.367188 96.847656 153.367188 100.03125 L 153.367188 341.003906 C 153.367188 344.183594 152.101562 347.234375 149.851562 349.484375 C 147.605469 351.730469 144.554688 352.996094 141.371094 352.996094 L 75.558594 352.996094 C 72.375 352.996094 69.328125 351.730469 67.078125 349.484375 C 64.828125 347.234375 63.5625 344.183594 63.5625 341.003906 L 63.5625 100.03125 C 63.5625 96.847656 64.828125 93.796875 67.078125 91.550781 C 69.328125 89.300781 72.375 88.035156 75.558594 88.035156 Z M 75.558594 88.035156 " clip-rule="nonzero"/></clipPath><clipPath id="91026d1407"><path d="M 0.5625 0.0351562 L 90.367188 0.0351562 L 90.367188 265 L 0.5625 265 Z M 0.5625 0.0351562 " clip-rule="nonzero"/></clipPath><clipPath id="f527244780"><path d="M 12.558594 0.0351562 L 78.371094 0.0351562 C 81.554688 0.0351562 84.605469 1.300781 86.851562 3.550781 C 89.101562 5.796875 90.367188 8.847656 90.367188 12.03125 L 90.367188 253.003906 C 90.367188 256.183594 89.101562 259.234375 86.851562 261.484375 C 84.605469 263.730469 81.554688 264.996094 78.371094 264.996094 L 12.558594 264.996094 C 9.375 264.996094 6.328125 263.730469 4.078125 261.484375 C 1.828125 259.234375 0.5625 256.183594 0.5625 253.003906 L 0.5625 12.03125 C 0.5625 8.847656 1.828125 5.796875 4.078125 3.550781 C 6.328125 1.300781 9.375 0.0351562 12.558594 0.0351562 Z M 12.558594 0.0351562 " clip-rule="nonzero"/></clipPath><clipPath id="6f25687492"><rect x="0" width="91" y="0" height="265"/></clipPath><clipPath id="64b0bf9311"><path d="M 63.5625 88.035156 L 328.332031 88.035156 L 328.332031 178.167969 L 63.5625 178.167969 Z M 63.5625 88.035156 " clip-rule="nonzero"/></clipPath><clipPath id="3d04ef2fb0"><path d="M 75.558594 88.035156 L 316.042969 88.035156 C 319.226562 88.035156 322.277344 89.300781 324.523438 91.550781 C 326.773438 93.796875 328.039062 96.847656 328.039062 100.03125 L 328.039062 166.175781 C 328.039062 169.355469 326.773438 172.40625 324.523438 174.65625 C 322.277344 176.90625 319.226562 178.167969 316.042969 178.167969 L 75.558594 178.167969 C 72.375 178.167969 69.328125 176.90625 67.078125 174.65625 C 64.828125 172.40625 63.5625 169.355469 63.5625 166.175781 L 63.5625 100.03125 C 63.5625 96.847656 64.828125 93.796875 67.078125 91.550781 C 69.328125 89.300781 72.375 88.035156 75.558594 88.035156 Z M 75.558594 88.035156 " clip-rule="nonzero"/></clipPath><clipPath id="143bd633b9"><path d="M 0.5625 0.0351562 L 265 0.0351562 L 265 90.167969 L 0.5625 90.167969 Z M 0.5625 0.0351562 " clip-rule="nonzero"/></clipPath><clipPath id="dec6f9828a"><path d="M 12.558594 0.0351562 L 253.042969 0.0351562 C 256.226562 0.0351562 259.277344 1.300781 261.523438 3.550781 C 263.773438 5.796875 265.039062 8.847656 265.039062 12.03125 L 265.039062 78.175781 C 265.039062 81.355469 263.773438 84.40625 261.523438 86.65625 C 259.277344 88.90625 256.226562 90.167969 253.042969 90.167969 L 12.558594 90.167969 C 9.375 90.167969 6.328125 88.90625 4.078125 86.65625 C 1.828125 84.40625 0.5625 81.355469 0.5625 78.175781 L 0.5625 12.03125 C 0.5625 8.847656 1.828125 5.796875 4.078125 3.550781 C 6.328125 1.300781 9.375 0.0351562 12.558594 0.0351562 Z M 12.558594 0.0351562 " clip-rule="nonzero"/></clipPath><clipPath id="9e90003690"><rect x="0" width="266" y="0" height="91"/></clipPath><clipPath id="273010a9a6"><path d="M 550.550781 88.035156 L 815.746094 88.035156 L 815.746094 177.835938 L 550.550781 177.835938 Z M 550.550781 88.035156 " clip-rule="nonzero"/></clipPath><clipPath id="8e348ff231"><path d="M 815.746094 100.03125 L 815.746094 165.84375 C 815.746094 169.023438 814.480469 172.074219 812.234375 174.324219 C 809.984375 176.574219 806.933594 177.835938 803.753906 177.835938 L 562.78125 177.835938 C 559.597656 177.835938 556.546875 176.574219 554.300781 174.324219 C 552.050781 172.074219 550.785156 169.023438 550.785156 165.84375 L 550.785156 100.03125 C 550.785156 96.847656 552.050781 93.796875 554.300781 91.546875 C 556.546875 89.300781 559.597656 88.035156 562.78125 88.035156 L 803.753906 88.035156 C 806.933594 88.035156 809.984375 89.300781 812.234375 91.546875 C 814.480469 93.796875 815.746094 96.847656 815.746094 100.03125 Z M 815.746094 100.03125 " clip-rule="nonzero"/></clipPath><clipPath id="356ee947bf"><path d="M 0.613281 0.0351562 L 265.746094 0.0351562 L 265.746094 89.835938 L 0.613281 89.835938 Z M 0.613281 0.0351562 " clip-rule="nonzero"/></clipPath><clipPath id="bc9065b3d8"><path d="M 265.746094 12.03125 L 265.746094 77.84375 C 265.746094 81.023438 264.480469 84.074219 262.234375 86.324219 C 259.984375 88.574219 256.933594 89.835938 253.753906 89.835938 L 12.78125 89.835938 C 9.597656 89.835938 6.546875 88.574219 4.300781 86.324219 C 2.050781 84.074219 0.785156 81.023438 0.785156 77.84375 L 0.785156 12.03125 C 0.785156 8.847656 2.050781 5.796875 4.300781 3.546875 C 6.546875 1.300781 9.597656 0.0351562 12.78125 0.0351562 L 253.753906 0.0351562 C 256.933594 0.0351562 259.984375 1.300781 262.234375 3.546875 C 264.480469 5.796875 265.746094 8.847656 265.746094 12.03125 Z M 265.746094 12.03125 " clip-rule="nonzero"/></clipPath><clipPath id="244e6bc061"><rect x="0" width="266" y="0" height="90"/></clipPath><clipPath id="0870bba8e6"><path d="M 725.613281 88.03125 L 815.746094 88.03125 L 815.746094 352.800781 L 725.613281 352.800781 Z M 725.613281 88.03125 " clip-rule="nonzero"/></clipPath><clipPath id="575a3fdd04"><path d="M 815.746094 100.027344 L 815.746094 340.511719 C 815.746094 343.695312 814.484375 346.746094 812.234375 348.992188 C 809.984375 351.242188 806.933594 352.507812 803.753906 352.507812 L 737.605469 352.507812 C 734.425781 352.507812 731.375 351.242188 729.125 348.992188 C 726.875 346.746094 725.613281 343.695312 725.613281 340.511719 L 725.613281 100.027344 C 725.613281 96.84375 726.875 93.796875 729.125 91.546875 C 731.375 89.296875 734.425781 88.03125 737.605469 88.03125 L 803.753906 88.03125 C 806.933594 88.03125 809.984375 89.296875 812.234375 91.546875 C 814.484375 93.796875 815.746094 96.84375 815.746094 100.027344 Z M 815.746094 100.027344 " clip-rule="nonzero"/></clipPath><clipPath id="c413b9d248"><path d="M 0.613281 0.03125 L 90.746094 0.03125 L 90.746094 264.601562 L 0.613281 264.601562 Z M 0.613281 0.03125 " clip-rule="nonzero"/></clipPath><clipPath id="bdc69641b9"><path d="M 90.746094 12.027344 L 90.746094 252.511719 C 90.746094 255.695312 89.484375 258.746094 87.234375 260.992188 C 84.984375 263.242188 81.933594 264.507812 78.753906 264.507812 L 12.605469 264.507812 C 9.425781 264.507812 6.375 263.242188 4.125 260.992188 C 1.875 258.746094 0.613281 255.695312 0.613281 252.511719 L 0.613281 12.027344 C 0.613281 8.84375 1.875 5.796875 4.125 3.546875 C 6.375 1.296875 9.425781 0.03125 12.605469 0.03125 L 78.753906 0.03125 C 81.933594 0.03125 84.984375 1.296875 87.234375 3.546875 C 89.484375 5.796875 90.746094 8.84375 90.746094 12.027344 Z M 90.746094 12.027344 " clip-rule="nonzero"/></clipPath><clipPath id="49cae1f516"><rect x="0" width="91" y="0" height="265"/></clipPath><clipPath id="0e9b7670e5"><path d="M 725.457031 575.019531 L 815.261719 575.019531 L 815.261719 840.214844 L 725.457031 840.214844 Z M 725.457031 575.019531 " clip-rule="nonzero"/></clipPath><clipPath id="9637403189"><path d="M 803.265625 840.214844 L 737.453125 840.214844 C 734.269531 840.214844 731.222656 838.953125 728.972656 836.703125 C 726.722656 834.453125 725.457031 831.402344 725.457031 828.222656 L 725.457031 587.25 C 725.457031 584.070312 726.722656 581.019531 728.972656 578.769531 C 731.222656 576.523438 734.269531 575.257812 737.453125 575.257812 L 803.265625 575.257812 C 806.449219 575.257812 809.5 576.523438 811.746094 578.769531 C 813.996094 581.019531 815.261719 584.070312 815.261719 587.25 L 815.261719 828.222656 C 815.261719 831.402344 813.996094 834.453125 811.746094 836.703125 C 809.5 838.953125 806.449219 840.214844 803.265625 840.214844 Z M 803.265625 840.214844 " clip-rule="nonzero"/></clipPath><clipPath id="bae52e8231"><path d="M 0.457031 0.199219 L 90.261719 0.199219 L 90.261719 265.214844 L 0.457031 265.214844 Z M 0.457031 0.199219 " clip-rule="nonzero"/></clipPath><clipPath id="fe6c2ffa84"><path d="M 78.265625 265.214844 L 12.453125 265.214844 C 9.269531 265.214844 6.222656 263.953125 3.972656 261.703125 C 1.722656 259.453125 0.457031 256.402344 0.457031 253.222656 L 0.457031 12.25 C 0.457031 9.070312 1.722656 6.019531 3.972656 3.769531 C 6.222656 1.523438 9.269531 0.257812 12.453125 0.257812 L 78.265625 0.257812 C 81.449219 0.257812 84.5 1.523438 86.746094 3.769531 C 88.996094 6.019531 90.261719 9.070312 90.261719 12.25 L 90.261719 253.222656 C 90.261719 256.402344 88.996094 259.453125 86.746094 261.703125 C 84.5 263.953125 81.449219 265.214844 78.265625 265.214844 Z M 78.265625 265.214844 " clip-rule="nonzero"/></clipPath><clipPath id="3491587aaa"><rect x="0" width="91" y="0" height="266"/></clipPath><clipPath id="adacc2d065"><path d="M 550.5 750.082031 L 815.265625 750.082031 L 815.265625 840.214844 L 550.5 840.214844 Z M 550.5 750.082031 " clip-rule="nonzero"/></clipPath><clipPath id="a2031886dc"><path d="M 803.269531 840.214844 L 562.785156 840.214844 C 559.601562 840.214844 556.554688 838.949219 554.304688 836.703125 C 552.054688 834.453125 550.789062 831.402344 550.789062 828.222656 L 550.789062 762.074219 C 550.789062 758.894531 552.054688 755.84375 554.304688 753.59375 C 556.554688 751.34375 559.601562 750.082031 562.785156 750.082031 L 803.269531 750.082031 C 806.453125 750.082031 809.503906 751.34375 811.75 753.59375 C 814 755.84375 815.265625 758.894531 815.265625 762.074219 L 815.265625 828.222656 C 815.265625 831.402344 814 834.453125 811.75 836.703125 C 809.503906 838.949219 806.453125 840.214844 803.269531 840.214844 Z M 803.269531 840.214844 " clip-rule="nonzero"/></clipPath><clipPath id="582070cb37"><path d="M 0.613281 0.0820312 L 265.265625 0.0820312 L 265.265625 90.214844 L 0.613281 90.214844 Z M 0.613281 0.0820312 " clip-rule="nonzero"/></clipPath><clipPath id="256cc52c60"><path d="M 253.269531 90.214844 L 12.785156 90.214844 C 9.601562 90.214844 6.554688 88.949219 4.304688 86.703125 C 2.054688 84.453125 0.789062 81.402344 0.789062 78.222656 L 0.789062 12.074219 C 0.789062 8.894531 2.054688 5.84375 4.304688 3.59375 C 6.554688 1.34375 9.601562 0.0820312 12.785156 0.0820312 L 253.269531 0.0820312 C 256.453125 0.0820312 259.503906 1.34375 261.75 3.59375 C 264 5.84375 265.265625 8.894531 265.265625 12.074219 L 265.265625 78.222656 C 265.265625 81.402344 264 84.453125 261.75 86.703125 C 259.503906 88.949219 256.453125 90.214844 253.269531 90.214844 Z M 253.269531 90.214844 " clip-rule="nonzero"/></clipPath><clipPath id="94aa9f4403"><rect x="0" width="266" y="0" height="91"/></clipPath><clipPath id="ad68db70ec"><path d="M 63.566406 749.929688 L 328.761719 749.929688 L 328.761719 839.730469 L 63.566406 839.730469 Z M 63.566406 749.929688 " clip-rule="nonzero"/></clipPath><clipPath id="0d607dd433"><path d="M 63.566406 827.738281 L 63.566406 761.921875 C 63.566406 758.742188 64.828125 755.691406 67.078125 753.441406 C 69.328125 751.195312 72.378906 749.929688 75.558594 749.929688 L 316.53125 749.929688 C 319.710938 749.929688 322.761719 751.195312 325.011719 753.441406 C 327.261719 755.691406 328.523438 758.742188 328.523438 761.921875 L 328.523438 827.738281 C 328.523438 830.917969 327.261719 833.96875 325.011719 836.21875 C 322.761719 838.46875 319.710938 839.730469 316.53125 839.730469 L 75.558594 839.730469 C 72.378906 839.730469 69.328125 838.46875 67.078125 836.21875 C 64.828125 833.96875 63.566406 830.917969 63.566406 827.738281 Z M 63.566406 827.738281 " clip-rule="nonzero"/></clipPath><clipPath id="1f5109b5f0"><path d="M 0.566406 0.929688 L 265.738281 0.929688 L 265.738281 90.730469 L 0.566406 90.730469 Z M 0.566406 0.929688 " clip-rule="nonzero"/></clipPath><clipPath id="80aac91360"><path d="M 0.566406 78.738281 L 0.566406 12.921875 C 0.566406 9.742188 1.828125 6.691406 4.078125 4.441406 C 6.328125 2.195312 9.378906 0.929688 12.558594 0.929688 L 253.53125 0.929688 C 256.710938 0.929688 259.761719 2.195312 262.011719 4.441406 C 264.261719 6.691406 265.523438 9.742188 265.523438 12.921875 L 265.523438 78.738281 C 265.523438 81.917969 264.261719 84.96875 262.011719 87.21875 C 259.761719 89.46875 256.710938 90.730469 253.53125 90.730469 L 12.558594 90.730469 C 9.378906 90.730469 6.328125 89.46875 4.078125 87.21875 C 1.828125 84.96875 0.566406 81.917969 0.566406 78.738281 Z M 0.566406 78.738281 " clip-rule="nonzero"/></clipPath><clipPath id="4c4b8c33cc"><rect x="0" width="266" y="0" height="91"/></clipPath><clipPath id="198c6ef66b"><path d="M 63.566406 575 L 153.699219 575 L 153.699219 839.734375 L 63.566406 839.734375 Z M 63.566406 575 " clip-rule="nonzero"/></clipPath><clipPath id="26c1e4916c"><path d="M 63.566406 827.738281 L 63.566406 587.253906 C 63.566406 584.070312 64.832031 581.019531 67.082031 578.773438 C 69.328125 576.523438 72.378906 575.257812 75.5625 575.257812 L 141.707031 575.257812 C 144.886719 575.257812 147.9375 576.523438 150.1875 578.773438 C 152.4375 581.019531 153.699219 584.070312 153.699219 587.253906 L 153.699219 827.738281 C 153.699219 830.921875 152.4375 833.972656 150.1875 836.21875 C 147.9375 838.46875 144.886719 839.734375 141.707031 839.734375 L 75.5625 839.734375 C 72.378906 839.734375 69.328125 838.46875 67.082031 836.21875 C 64.832031 833.972656 63.566406 830.921875 63.566406 827.738281 Z M 63.566406 827.738281 " clip-rule="nonzero"/></clipPath><clipPath id="af555c65d8"><path d="M 0.566406 0.199219 L 90.699219 0.199219 L 90.699219 264.734375 L 0.566406 264.734375 Z M 0.566406 0.199219 " clip-rule="nonzero"/></clipPath><clipPath id="14f1af0fdf"><path d="M 0.566406 252.738281 L 0.566406 12.253906 C 0.566406 9.070312 1.832031 6.019531 4.082031 3.773438 C 6.328125 1.523438 9.378906 0.257812 12.5625 0.257812 L 78.707031 0.257812 C 81.886719 0.257812 84.9375 1.523438 87.1875 3.773438 C 89.4375 6.019531 90.699219 9.070312 90.699219 12.253906 L 90.699219 252.738281 C 90.699219 255.921875 89.4375 258.972656 87.1875 261.21875 C 84.9375 263.46875 81.886719 264.734375 78.707031 264.734375 L 12.5625 264.734375 C 9.378906 264.734375 6.328125 263.46875 4.082031 261.21875 C 1.832031 258.972656 0.566406 255.921875 0.566406 252.738281 Z M 0.566406 252.738281 " clip-rule="nonzero"/></clipPath><clipPath id="2989696d1b"><rect x="0" width="91" y="0" height="265"/></clipPath></defs><g clip-path="url(#f2740ec0ac)"><g clip-path="url(#ba2e49dee0)"><g transform="matrix(1, 0, 0, 1, 63, 88)"><g clip-path="url(#6f25687492)"><g clip-path="url(#91026d1407)"><g clip-path="url(#f527244780)"><path fill="#fefefe" d="M 0.5625 0.0351562 L 90.367188 0.0351562 L 90.367188 264.882812 L 0.5625 264.882812 Z M 0.5625 0.0351562 " fill-opacity="1" fill-rule="nonzero"/></g></g></g></g></g></g><g clip-path="url(#64b0bf9311)"><g clip-path="url(#3d04ef2fb0)"><g transform="matrix(1, 0, 0, 1, 63, 88)"><g clip-path="url(#9e90003690)"><g clip-path="url(#143bd633b9)"><g clip-path="url(#dec6f9828a)"><path fill="#fefefe" d="M 0.5625 0.0351562 L 264.976562 0.0351562 L 264.976562 90.167969 L 0.5625 90.167969 Z M 0.5625 0.0351562 " fill-opacity="1" fill-rule="nonzero"/></g></g></g></g></g></g><g clip-path="url(#273010a9a6)"><g clip-path="url(#8e348ff231)"><g transform="matrix(1, 0, 0, 1, 550, 88)"><g clip-path="url(#244e6bc061)"><g clip-path="url(#356ee947bf)"><g clip-path="url(#bc9065b3d8)"><path fill="#fefefe" d="M 265.746094 0.0351562 L 265.746094 89.835938 L 0.898438 89.835938 L 0.898438 0.0351562 Z M 265.746094 0.0351562 " fill-opacity="1" fill-rule="nonzero"/></g></g></g></g></g></g><g clip-path="url(#0870bba8e6)"><g clip-path="url(#575a3fdd04)"><g transform="matrix(1, 0, 0, 1, 725, 88)"><g clip-path="url(#49cae1f516)"><g clip-path="url(#c413b9d248)"><g clip-path="url(#bdc69641b9)"><path fill="#fefefe" d="M 90.746094 0.03125 L 90.746094 264.445312 L 0.613281 264.445312 L 0.613281 0.03125 Z M 90.746094 0.03125 " fill-opacity="1" fill-rule="nonzero"/></g></g></g></g></g></g><g clip-path="url(#0e9b7670e5)"><g clip-path="url(#9637403189)"><g transform="matrix(1, 0, 0, 1, 725, 575)"><g clip-path="url(#3491587aaa)"><g clip-path="url(#bae52e8231)"><g clip-path="url(#fe6c2ffa84)"><path fill="#fefefe" d="M 90.261719 265.214844 L 0.457031 265.214844 L 0.457031 0.371094 L 90.261719 0.371094 Z M 90.261719 265.214844 " fill-opacity="1" fill-rule="nonzero"/></g></g></g></g></g></g><g clip-path="url(#adacc2d065)"><g clip-path="url(#a2031886dc)"><g transform="matrix(1, 0, 0, 1, 550, 750)"><g clip-path="url(#94aa9f4403)"><g clip-path="url(#582070cb37)"><g clip-path="url(#256cc52c60)"><path fill="#fefefe" d="M 265.265625 90.214844 L 0.851562 90.214844 L 0.851562 0.0820312 L 265.265625 0.0820312 Z M 265.265625 90.214844 " fill-opacity="1" fill-rule="nonzero"/></g></g></g></g></g></g><g clip-path="url(#ad68db70ec)"><g clip-path="url(#0d607dd433)"><g transform="matrix(1, 0, 0, 1, 63, 749)"><g clip-path="url(#4c4b8c33cc)"><g clip-path="url(#1f5109b5f0)"><g clip-path="url(#80aac91360)"><path fill="#fefefe" d="M 0.566406 90.730469 L 0.566406 0.929688 L 265.410156 0.929688 L 265.410156 90.730469 Z M 0.566406 90.730469 " fill-opacity="1" fill-rule="nonzero"/></g></g></g></g></g></g><g clip-path="url(#198c6ef66b)"><g clip-path="url(#26c1e4916c)"><g transform="matrix(1, 0, 0, 1, 63, 575)"><g clip-path="url(#2989696d1b)"><g clip-path="url(#af555c65d8)"><g clip-path="url(#14f1af0fdf)"><path fill="#fefefe" d="M 0.566406 264.734375 L 0.566406 0.320312 L 90.699219 0.320312 L 90.699219 264.734375 Z M 0.566406 264.734375 " fill-opacity="1" fill-rule="nonzero"/></g></g></g></g></g></g><g fill="#fefefe" fill-opacity="1"><g transform="translate(180.063165, 627.650884)"><g><path d="M 227.640625 -110.046875 L 321.71875 -110.046875 C 315.207031 -87.859375 304.484375 -68.1875 289.546875 -51.03125 C 274.609375 -33.875 256.785156 -20.335938 236.078125 -10.421875 C 215.367188 -0.515625 192.882812 4.4375 168.625 4.4375 C 146.726562 4.4375 126.09375 0.296875 106.71875 -7.984375 C 87.34375 -16.265625 70.332031 -27.726562 55.6875 -42.375 C 41.039062 -57.019531 29.578125 -73.957031 21.296875 -93.1875 C 13.015625 -112.414062 8.875 -133.125 8.875 -155.3125 C 8.875 -177.5 13.015625 -198.207031 21.296875 -217.4375 C 29.578125 -236.664062 41.039062 -253.601562 55.6875 -268.25 C 70.332031 -282.894531 87.34375 -294.359375 106.71875 -302.640625 C 126.09375 -310.921875 146.726562 -315.0625 168.625 -315.0625 C 192.882812 -315.0625 215.367188 -310.101562 236.078125 -300.1875 C 256.785156 -290.28125 274.609375 -276.75 289.546875 -259.59375 C 304.484375 -242.4375 315.207031 -222.910156 321.71875 -201.015625 L 227.640625 -201.015625 C 220.835938 -209.597656 212.332031 -216.550781 202.125 -221.875 C 191.914062 -227.195312 180.75 -229.859375 168.625 -229.859375 C 155.019531 -229.859375 142.59375 -226.457031 131.34375 -219.65625 C 120.101562 -212.851562 111.15625 -203.828125 104.5 -192.578125 C 97.84375 -181.335938 94.515625 -168.914062 94.515625 -155.3125 C 94.515625 -141.707031 97.84375 -129.28125 104.5 -118.03125 C 111.15625 -106.789062 120.101562 -97.769531 131.34375 -90.96875 C 142.59375 -84.164062 155.019531 -80.765625 168.625 -80.765625 C 180.75 -80.765625 191.914062 -83.425781 202.125 -88.75 C 212.332031 -94.070312 220.835938 -101.171875 227.640625 -110.046875 Z M 227.640625 -110.046875 "/></g></g></g><g fill="#fefefe" fill-opacity="1"><g transform="translate(510.65735, 627.650884)"><g><path d="M 98.515625 -171.734375 C 114.191406 -171.734375 128.535156 -167.882812 141.546875 -160.1875 C 154.566406 -152.5 164.921875 -142.144531 172.609375 -129.125 C 180.304688 -116.113281 184.15625 -101.769531 184.15625 -86.09375 C 184.15625 -70.113281 180.304688 -55.613281 172.609375 -42.59375 C 164.921875 -29.582031 154.566406 -19.226562 141.546875 -11.53125 C 128.535156 -3.84375 114.191406 0 98.515625 0 L 13.3125 0 L 13.3125 -310.625 L 98.515625 -310.625 C 111.234375 -310.625 122.84375 -307.515625 133.34375 -301.296875 C 143.84375 -295.085938 152.195312 -286.734375 158.40625 -276.234375 C 164.625 -265.734375 167.734375 -254.125 167.734375 -241.40625 C 167.734375 -228.382812 164.625 -216.625 158.40625 -206.125 C 152.195312 -195.625 143.84375 -187.265625 133.34375 -181.046875 C 122.84375 -174.835938 111.234375 -171.734375 98.515625 -171.734375 Z M 98.515625 -171.734375 "/></g></g></g></svg>