<?xml version="1.0" encoding="UTF-8" standalone="no"?>
<svg
   width="1920"
   zoomAndPan="magnify"
   viewBox="0 0 1440 809.999993"
   height="1080"
   preserveAspectRatio="xMidYMid meet"
   version="1.0"
   id="svg40"
   sodipodi:docname="logo_light.svg"
   inkscape:version="1.4.3 (fcd0343856, 2026-01-01)"
   xmlns:inkscape="http://www.inkscape.org/namespaces/inkscape"
   xmlns:sodipodi="http://sodipodi.sourceforge.net/DTD/sodipodi-0.dtd"
   xmlns="http://www.w3.org/2000/svg"
   xmlns:svg="http://www.w3.org/2000/svg">
  <sodipodi:namedview
     id="namedview40"
     pagecolor="#ffffff"
     bordercolor="#000000"
     borderopacity="0.25"
     inkscape:showpageshadow="2"
     inkscape:pageopacity="0.0"
     inkscape:pagecheckerboard="0"
     inkscape:deskcolor="#d1d1d1"
     inkscape:zoom="0.64442285"
     inkscape:cx="672.69495"
     inkscape:cy="467.8605"
     inkscape:window-width="2048"
     inkscape:window-height="1211"
     inkscape:window-x="0"
     inkscape:window-y="32"
     inkscape:window-maximized="1"
     inkscape:current-layer="g40" />
  <defs
     id="defs13">
    <g
       id="g1" />
    <clipPath
       id="3159ef957d">
      <path
         d="M 11.679688 0.308594 L 665.078125 0.308594 C 667.945312 0.308594 670.691406 1.449219 672.714844 3.472656 C 674.742188 5.5 675.878906 8.246094 675.878906 11.109375 L 675.878906 664.507812 C 675.878906 667.375 674.742188 670.121094 672.714844 672.144531 C 670.691406 674.171875 667.945312 675.308594 665.078125 675.308594 L 11.679688 675.308594 C 8.816406 675.308594 6.070312 674.171875 4.042969 672.144531 C 2.019531 670.121094 0.878906 667.375 0.878906 664.507812 L 0.878906 11.109375 C 0.878906 8.246094 2.019531 5.5 4.042969 3.472656 C 6.070312 1.449219 8.816406 0.308594 11.679688 0.308594 Z M 11.679688 0.308594 "
         clip-rule="nonzero"
         id="path2" />
    </clipPath>
    <clipPath
       id="08d2392af4">
      <path
         d="M 0.878906 0.308594 L 675.878906 0.308594 L 675.878906 675.308594 L 0.878906 675.308594 Z M 0.878906 0.308594 "
         clip-rule="nonzero"
         id="path3" />
    </clipPath>
    <clipPath
       id="e09d19ac94">
      <path
         d="M 11.679688 0.308594 L 665.078125 0.308594 C 667.945312 0.308594 670.691406 1.449219 672.714844 3.472656 C 674.742188 5.5 675.878906 8.246094 675.878906 11.109375 L 675.878906 664.507812 C 675.878906 667.375 674.742188 670.121094 672.714844 672.144531 C 670.691406 674.171875 667.945312 675.308594 665.078125 675.308594 L 11.679688 675.308594 C 8.816406 675.308594 6.070312 674.171875 4.042969 672.144531 C 2.019531 670.121094 0.878906 667.375 0.878906 664.507812 L 0.878906 11.109375 C 0.878906 8.246094 2.019531 5.5 4.042969 3.472656 C 6.070312 1.449219 8.816406 0.308594 11.679688 0.308594 Z M 11.679688 0.308594 "
         clip-rule="nonzero"
         id="path4" />
    </clipPath>
    <clipPath
       id="9ce0356751">
      <rect
         x="0"
         width="676"
         y="0"
         height="676"
         id="rect4" />
    </clipPath>
    <clipPath
       id="23eef7d8bd">
      <path
         d="M 78.503906 67.808594 L 600.957031 67.808594 C 603.28125 67.808594 605.515625 68.734375 607.160156 70.378906 C 608.804688 72.027344 609.730469 74.257812 609.730469 76.585938 L 609.730469 599.097656 C 609.730469 601.421875 608.804688 603.65625 607.160156 605.300781 C 605.515625 606.945312 603.28125 607.871094 600.957031 607.871094 L 78.503906 607.871094 C 76.179688 607.871094 73.945312 606.945312 72.300781 605.300781 C 70.65625 603.65625 69.730469 601.421875 69.730469 599.097656 L 69.730469 76.585938 C 69.730469 74.257812 70.65625 72.027344 72.300781 70.378906 C 73.945312 68.734375 76.179688 67.808594 78.503906 67.808594 Z M 78.503906 67.808594 "
         clip-rule="nonzero"
         id="path6" />
    </clipPath>
    <clipPath
       id="2c4ad39dd8">
      <path
         d="M 0.730469 0.808594 L 540.730469 0.808594 L 540.730469 540.878906 L 0.730469 540.878906 Z M 0.730469 0.808594 "
         clip-rule="nonzero"
         id="path7" />
    </clipPath>
    <clipPath
       id="a1e67db628">
      <path
         d="M 9.503906 0.808594 L 531.957031 0.808594 C 534.28125 0.808594 536.515625 1.734375 538.160156 3.378906 C 539.804688 5.027344 540.730469 7.257812 540.730469 9.585938 L 540.730469 532.097656 C 540.730469 534.421875 539.804688 536.65625 538.160156 538.300781 C 536.515625 539.945312 534.28125 540.871094 531.957031 540.871094 L 9.503906 540.871094 C 7.179688 540.871094 4.945312 539.945312 3.300781 538.300781 C 1.65625 536.65625 0.730469 534.421875 0.730469 532.097656 L 0.730469 9.585938 C 0.730469 7.257812 1.65625 5.027344 3.300781 3.378906 C 4.945312 1.734375 7.179688 0.808594 9.503906 0.808594 Z M 9.503906 0.808594 "
         clip-rule="nonzero"
         id="path8" />
    </clipPath>
    <clipPath
       id="525fbebfc7">
      <rect
         x="0"
         width="541"
         y="0"
         height="541"
         id="rect8" />
    </clipPath>
    <clipPath
       id="8cac7ed2c0">
      <path
         d="M 0.878906 0.777344 L 675.878906 0.777344 L 675.878906 225.554688 L 0.878906 225.554688 Z M 0.878906 0.777344 "
         clip-rule="nonzero"
         id="path10" />
    </clipPath>
    <clipPath
       id="b60ab78dde">
      <rect
         x="0"
         width="676"
         y="0"
         height="226"
         id="rect10" />
    </clipPath>
    <clipPath
       id="0459c4d658">
      <path
         d="M 0.992188 0.308594 L 225.765625 0.308594 L 225.765625 675.308594 L 0.992188 675.308594 Z M 0.992188 0.308594 "
         clip-rule="nonzero"
         id="path12" />
    </clipPath>
    <clipPath
       id="2535e1f2bf">
      <rect
         x="0"
         width="226"
         y="0"
         height="676"
         id="rect12" />
    </clipPath>
    <clipPath
       clipPathUnits="userSpaceOnUse"
       id="clipPath61">
      <path
         d="M 0.87890835,215.77734 H 675.87892 V 440.55469 H 0.87890835 Z m 0,0"
         clip-rule="nonzero"
         id="path61"
         style="stroke-width:0.999997" />
    </clipPath>
    <clipPath
       clipPathUnits="userSpaceOnUse"
       id="clipPath63">
      <path
         d="M 225.99219,0.30859371 H 450.7656 V 675.30859 H 225.99219 Z m 0,0"
         clip-rule="nonzero"
         id="path63"
         style="stroke-width:0.999997" />
    </clipPath>
    <clipPath
       clipPathUnits="userSpaceOnUse"
       id="clipPath66">
      <path
         d="M 69.730468,67.808592 H 609.7305 V 608 H 69.730468 Z m 0,0"
         clip-rule="nonzero"
         id="path67"
         style="stroke-width:0.999997" />
    </clipPath>
  </defs>
  <g
     transform="matrix(1, 0, 0, 1, 381, 67)"
     id="g40">
    <path
       id="path13"
       d="M 0.8789046 0.30810518 L 0.8789046 215.77783 L 69.730955 215.77783 L 69.730955 67.808105 L 225.9917 67.808105 L 225.9917 0.30810518 L 0.8789046 0.30810518 z M 450.76611 0.30810518 L 450.76611 67.808105 L 609.73095 67.808105 L 609.73095 215.77783 L 675.8789 215.77783 L 675.8789 0.30810518 L 450.76611 0.30810518 z M 0.8789046 440.55517 L 0.8789046 675.3081 L 225.9917 675.3081 L 225.9917 607.8081 L 69.730955 607.8081 L 69.730955 440.55517 L 0.8789046 440.55517 z M 609.73095 440.55517 L 609.73095 607.8081 L 450.76611 607.8081 L 450.76611 675.3081 L 675.8789 675.3081 L 675.8789 440.55517 L 609.73095 440.55517 z " />
    <path
       d="m 309.5988,387.54243 h 84.71875 c -5.85546,19.98047 -15.51171,37.69531 -28.96875,53.14063 -13.44921,15.44921 -29.5,27.63671 -48.15625,36.5625 -18.64843,8.92968 -38.89062,13.39062 -60.73437,13.39062 -19.71094,0 -38.29297,-3.73047 -55.75,-11.1875 -17.44922,-7.45703 -32.76563,-17.78125 -45.95313,-30.96875 -13.17968,-13.1875 -23.5,-28.4375 -30.96874,-45.75 -7.46094,-17.32031 -11.1875,-35.97266 -11.1875,-55.95312 0,-19.97657 3.72656,-38.625 11.1875,-55.9375 7.46874,-17.32032 17.78906,-32.57032 30.96874,-45.75 13.1875,-13.1875 28.50391,-23.50782 45.95313,-30.96875 17.45703,-7.46875 36.03906,-11.20313 55.75,-11.20313 21.84375,0 42.08594,4.46484 60.73437,13.39063 18.65625,8.92968 34.70704,21.11718 48.15625,36.5625 13.45704,15.44921 23.11329,33.03125 28.96875,52.75 H 309.5988 c -6.125,-7.72657 -13.78125,-13.98829 -22.96875,-18.78125 -9.1875,-4.78907 -19.24609,-7.1875 -30.17187,-7.1875 -12.25,0 -23.4375,3.0625 -33.5625,9.1875 -10.125,6.125 -18.1875,14.25 -24.1875,24.375 -5.99219,10.125 -8.98438,21.3125 -8.98438,33.5625 0,12.26171 2.99219,23.45312 8.98438,33.57812 6,10.11719 14.0625,18.24219 24.1875,24.375 10.125,6.125 21.3125,9.1875 33.5625,9.1875 10.92578,0 20.98437,-2.39453 30.17187,-7.1875 9.1875,-4.80078 16.84375,-11.19531 22.96875,-19.1875 z m 0,0"
       id="path32"
       style="fill:#f2f2f2;fill-opacity:1" />
    <path
       d="m 491.01902,331.99556 c 14.125,0 27.04687,3.46484 38.76562,10.39062 11.71875,6.92969 21.03906,16.25 27.96875,27.96875 6.92578,11.71875 10.39062,24.64063 10.39062,38.76563 0,14.38671 -3.46484,27.4375 -10.39062,39.15625 -6.92969,11.71875 -16.25,21.04296 -27.96875,27.96875 -11.71875,6.92968 -24.64062,10.39062 -38.76562,10.39062 H 414.30027 V 206.91743 h 76.71875 c 11.45703,0 21.91406,2.79688 31.375,8.39063 9.45703,5.59375 16.98437,13.12109 22.57812,22.57812 5.59375,9.46094 8.39062,19.91797 8.39062,31.375 0,11.71875 -2.79687,22.30859 -8.39062,31.76563 -5.59375,9.46093 -13.12109,16.98437 -22.57812,22.57812 -9.46094,5.59375 -19.91797,8.39063 -31.375,8.39063 z m 0,0"
       id="path35"
       style="fill:#f2f2f2;fill-opacity:1" />
    <path
       style="fill:#000000;fill-opacity:0.398856;stroke-width:1.208"
       d="M 510.53435,233.54231 V 90.778903 h 148.9705 148.97051 v 44.225617 44.22562 h -103.969 -103.969 v 98.53779 98.53778 h -45.00151 -45.0015 z"
       id="path68"
       transform="matrix(0.75,0,0,0.75,-381,-67)" />
    <path
       style="fill:#f2f2f2;fill-opacity:1;stroke-width:1.208"
       d="M 510.53435,233.54231 V 90.778903 h 148.9705 148.97051 v 44.225617 44.22562 h -103.969 -103.969 v 98.53779 98.53778 h -45.00151 -45.0015 z"
       id="path69"
       transform="matrix(0.75,0,0,0.75,-381,-67)" />
    <path
       style="fill:#f2f2f2;fill-opacity:1;stroke-width:1.208"
       d="m 510.53435,833.30378 v -155.9535 h 45.0015 45.00151 v 111.72788 111.72788 h 103.969 103.969 v 44.22562 44.22562 H 659.50485 510.53435 Z"
       id="path70"
       transform="matrix(0.75,0,0,0.75,-381,-67)" />
    <path
       style="fill:#f2f2f2;fill-opacity:1;stroke-width:1.208"
       d="m 1109.5199,945.03166 v -44.22562 h 106.2967 106.2967 V 789.07816 677.35028 h 43.4497 43.4497 v 155.9535 155.9535 h -149.7464 -149.7464 z"
       id="path71"
       transform="matrix(0.75,0,0,0.75,-381,-67)" />
    <path
       style="fill:#f2f2f2;fill-opacity:1;stroke-width:1.208"
       d="M 1322.1133,277.76793 V 179.23014 H 1215.8166 1109.5199 V 135.00452 90.778903 h 149.7464 149.7464 v 142.763407 142.7634 h -43.4497 -43.4497 z"
       id="path72"
       transform="matrix(0.75,0,0,0.75,-381,-67)" />
  </g>
</svg>
