<svg xmlns="http://www.w3.org/2000/svg" xmlns:xlink="http://www.w3.org/1999/xlink" width="1920" zoomAndPan="magnify" viewBox="0 0 1440 809.999993" height="1080" preserveAspectRatio="xMidYMid meet" version="1.0"><defs><g/><clipPath id="42c7b19f14"><path d="M 0.457031 1.066406 L 81.089844 1.066406 L 81.089844 239 L 0.457031 239 Z M 0.457031 1.066406 " clip-rule="nonzero"/></clipPath><clipPath id="d86cac48a6"><path d="M 11.226562 1.066406 L 70.320312 1.066406 C 73.175781 1.066406 75.917969 2.199219 77.9375 4.21875 C 79.957031 6.238281 81.089844 8.976562 81.089844 11.832031 L 81.089844 228.203125 C 81.089844 231.058594 79.957031 233.796875 77.9375 235.816406 C 75.917969 237.835938 73.175781 238.972656 70.320312 238.972656 L 11.226562 238.972656 C 8.371094 238.972656 5.628906 237.835938 3.609375 235.816406 C 1.589844 233.796875 0.457031 231.058594 0.457031 228.203125 L 0.457031 11.832031 C 0.457031 8.976562 1.589844 6.238281 3.609375 4.21875 C 5.628906 2.199219 8.371094 1.066406 11.226562 1.066406 Z M 11.226562 1.066406 " clip-rule="nonzero"/></clipPath><clipPath id="ecdfcbd994"><path d="M 0.457031 0.0664062 L 81.089844 0.0664062 L 81.089844 238 L 0.457031 238 Z M 0.457031 0.0664062 " clip-rule="nonzero"/></clipPath><clipPath id="65887bfab6"><path d="M 11.226562 0.0664062 L 70.320312 0.0664062 C 73.175781 0.0664062 75.917969 1.199219 77.9375 3.21875 C 79.957031 5.238281 81.089844 7.976562 81.089844 10.832031 L 81.089844 227.203125 C 81.089844 230.058594 79.957031 232.796875 77.9375 234.816406 C 75.917969 236.835938 73.175781 237.972656 70.320312 237.972656 L 11.226562 237.972656 C 8.371094 237.972656 5.628906 236.835938 3.609375 234.816406 C 1.589844 232.796875 0.457031 230.058594 0.457031 227.203125 L 0.457031 10.832031 C 0.457031 7.976562 1.589844 5.238281 3.609375 3.21875 C 5.628906 1.199219 8.371094 0.0664062 11.226562 0.0664062 Z M 11.226562 0.0664062 " clip-rule="nonzero"/></clipPath><clipPath id="fafba1f0e9"><rect x="0" width="82" y="0" height="238"/></clipPath><clipPath id="bf009977e4"><path d="M 0.457031 1.066406 L 238 1.066406 L 238 81.996094 L 0.457031 81.996094 Z M 0.457031 1.066406 " clip-rule="nonzero"/></clipPath><clipPath id="530ca05960"><path d="M 11.226562 1.066406 L 227.160156 1.066406 C 230.015625 1.066406 232.753906 2.199219 234.773438 4.21875 C 236.792969 6.238281 237.929688 8.976562 237.929688 11.832031 L 237.929688 71.226562 C 237.929688 74.082031 236.792969 76.820312 234.773438 78.839844 C 232.753906 80.859375 230.015625 81.996094 227.160156 81.996094 L 11.226562 81.996094 C 8.371094 81.996094 5.628906 80.859375 3.609375 78.839844 C 1.589844 76.820312 0.457031 74.082031 0.457031 71.226562 L 0.457031 11.832031 C 0.457031 8.976562 1.589844 6.238281 3.609375 4.21875 C 5.628906 2.199219 8.371094 1.066406 11.226562 1.066406 Z M 11.226562 1.066406 " clip-rule="nonzero"/></clipPath><clipPath id="d6710f8bcb"><path d="M 0.457031 0.0664062 L 238 0.0664062 L 238 80.996094 L 0.457031 80.996094 Z M 0.457031 0.0664062 " clip-rule="nonzero"/></clipPath><clipPath id="bb1fdb35ed"><path d="M 11.226562 0.0664062 L 227.160156 0.0664062 C 230.015625 0.0664062 232.753906 1.199219 234.773438 3.21875 C 236.792969 5.238281 237.929688 7.976562 237.929688 10.832031 L 237.929688 70.226562 C 237.929688 73.082031 236.792969 75.820312 234.773438 77.839844 C 232.753906 79.859375 230.015625 80.996094 227.160156 80.996094 L 11.226562 80.996094 C 8.371094 80.996094 5.628906 79.859375 3.609375 77.839844 C 1.589844 75.820312 0.457031 73.082031 0.457031 70.226562 L 0.457031 10.832031 C 0.457031 7.976562 1.589844 5.238281 3.609375 3.21875 C 5.628906 1.199219 8.371094 0.0664062 11.226562 0.0664062 Z M 11.226562 0.0664062 " clip-rule="nonzero"/></clipPath><clipPath id="75f77aca7d"><rect x="0" width="238" y="0" height="81"/></clipPath><clipPath id="77211b96e9"><path d="M 437.722656 1.0625 L 675.84375 1.0625 L 675.84375 81.699219 L 437.722656 81.699219 Z M 437.722656 1.0625 " clip-rule="nonzero"/></clipPath><clipPath id="23bf4a6ed5"><path d="M 675.84375 11.832031 L 675.84375 70.929688 C 675.84375 73.785156 674.707031 76.523438 672.6875 78.542969 C 670.667969 80.5625 667.929688 81.699219 665.074219 81.699219 L 448.703125 81.699219 C 445.847656 81.699219 443.109375 80.5625 441.089844 78.542969 C 439.070312 76.523438 437.933594 73.785156 437.933594 70.929688 L 437.933594 11.832031 C 437.933594 8.976562 439.070312 6.238281 441.089844 4.21875 C 443.109375 2.199219 445.847656 1.0625 448.703125 1.0625 L 665.074219 1.0625 C 667.929688 1.0625 670.667969 2.199219 672.6875 4.21875 C 674.707031 6.238281 675.84375 8.976562 675.84375 11.832031 Z M 675.84375 11.832031 " clip-rule="nonzero"/></clipPath><clipPath id="48079d0825"><path d="M 1 0.0625 L 238.84375 0.0625 L 238.84375 80.699219 L 1 80.699219 Z M 1 0.0625 " clip-rule="nonzero"/></clipPath><clipPath id="cb40649d43"><path d="M 238.84375 10.832031 L 238.84375 69.929688 C 238.84375 72.785156 237.707031 75.523438 235.6875 77.542969 C 233.667969 79.5625 230.929688 80.699219 228.074219 80.699219 L 11.703125 80.699219 C 8.847656 80.699219 6.109375 79.5625 4.089844 77.542969 C 2.070312 75.523438 0.933594 72.785156 0.933594 69.929688 L 0.933594 10.832031 C 0.933594 7.976562 2.070312 5.238281 4.089844 3.21875 C 6.109375 1.199219 8.847656 0.0625 11.703125 0.0625 L 228.074219 0.0625 C 230.929688 0.0625 233.667969 1.199219 235.6875 3.21875 C 237.707031 5.238281 238.84375 7.976562 238.84375 10.832031 Z M 238.84375 10.832031 " clip-rule="nonzero"/></clipPath><clipPath id="2baa751783"><rect x="0" width="239" y="0" height="81"/></clipPath><clipPath id="b476a2bc6b"><path d="M 594.910156 1.0625 L 675.84375 1.0625 L 675.84375 238.796875 L 594.910156 238.796875 Z M 594.910156 1.0625 " clip-rule="nonzero"/></clipPath><clipPath id="0c86b3794b"><path d="M 675.84375 11.832031 L 675.84375 227.765625 C 675.84375 230.621094 674.707031 233.359375 672.6875 235.378906 C 670.667969 237.398438 667.929688 238.53125 665.074219 238.53125 L 605.679688 238.53125 C 602.824219 238.53125 600.085938 237.398438 598.066406 235.378906 C 596.046875 233.359375 594.910156 230.621094 594.910156 227.765625 L 594.910156 11.832031 C 594.910156 8.972656 596.046875 6.234375 598.066406 4.214844 C 600.085938 2.195312 602.824219 1.0625 605.679688 1.0625 L 665.074219 1.0625 C 667.929688 1.0625 670.667969 2.195312 672.6875 4.214844 C 674.707031 6.234375 675.84375 8.972656 675.84375 11.832031 Z M 675.84375 11.832031 " clip-rule="nonzero"/></clipPath><clipPath id="25f926fafe"><path d="M 0.910156 0.0625 L 81.84375 0.0625 L 81.84375 237.558594 L 0.910156 237.558594 Z M 0.910156 0.0625 " clip-rule="nonzero"/></clipPath><clipPath id="a460a6d222"><path d="M 81.84375 10.832031 L 81.84375 226.765625 C 81.84375 229.621094 80.707031 232.359375 78.6875 234.378906 C 76.667969 236.398438 73.929688 237.53125 71.074219 237.53125 L 11.679688 237.53125 C 8.824219 237.53125 6.085938 236.398438 4.066406 234.378906 C 2.046875 232.359375 0.910156 229.621094 0.910156 226.765625 L 0.910156 10.832031 C 0.910156 7.972656 2.046875 5.234375 4.066406 3.214844 C 6.085938 1.195312 8.824219 0.0625 11.679688 0.0625 L 71.074219 0.0625 C 73.929688 0.0625 76.667969 1.195312 78.6875 3.214844 C 80.707031 5.234375 81.84375 7.972656 81.84375 10.832031 Z M 81.84375 10.832031 " clip-rule="nonzero"/></clipPath><clipPath id="3035bc3522"><rect x="0" width="82" y="0" height="238"/></clipPath><clipPath id="e964a6e143"><path d="M 594.773438 438.328125 L 675.40625 438.328125 L 675.40625 676.449219 L 594.773438 676.449219 Z M 594.773438 438.328125 " clip-rule="nonzero"/></clipPath><clipPath id="509cc278ed"><path d="M 664.636719 676.449219 L 605.542969 676.449219 C 602.6875 676.449219 599.949219 675.316406 597.929688 673.296875 C 595.910156 671.277344 594.773438 668.535156 594.773438 665.679688 L 594.773438 449.3125 C 594.773438 446.453125 595.910156 443.714844 597.929688 441.695312 C 599.949219 439.675781 602.6875 438.542969 605.542969 438.542969 L 664.636719 438.542969 C 667.496094 438.542969 670.234375 439.675781 672.253906 441.695312 C 674.273438 443.714844 675.40625 446.453125 675.40625 449.3125 L 675.40625 665.679688 C 675.40625 668.535156 674.273438 671.277344 672.253906 673.296875 C 670.234375 675.316406 667.496094 676.449219 664.636719 676.449219 Z M 664.636719 676.449219 " clip-rule="nonzero"/></clipPath><clipPath id="7923023c72"><path d="M 0.773438 0.480469 L 81.40625 0.480469 L 81.40625 238.449219 L 0.773438 238.449219 Z M 0.773438 0.480469 " clip-rule="nonzero"/></clipPath><clipPath id="51a6ac1af2"><path d="M 70.636719 238.449219 L 11.542969 238.449219 C 8.6875 238.449219 5.949219 237.316406 3.929688 235.296875 C 1.910156 233.277344 0.773438 230.535156 0.773438 227.679688 L 0.773438 11.3125 C 0.773438 8.453125 1.910156 5.714844 3.929688 3.695312 C 5.949219 1.675781 8.6875 0.542969 11.542969 0.542969 L 70.636719 0.542969 C 73.496094 0.542969 76.234375 1.675781 78.253906 3.695312 C 80.273438 5.714844 81.40625 8.453125 81.40625 11.3125 L 81.40625 227.679688 C 81.40625 230.535156 80.273438 233.277344 78.253906 235.296875 C 76.234375 237.316406 73.496094 238.449219 70.636719 238.449219 Z M 70.636719 238.449219 " clip-rule="nonzero"/></clipPath><clipPath id="453ba71f8c"><rect x="0" width="82" y="0" height="239"/></clipPath><clipPath id="11218f5211"><path d="M 437.675781 595.515625 L 675.410156 595.515625 L 675.410156 676.449219 L 437.675781 676.449219 Z M 437.675781 595.515625 " clip-rule="nonzero"/></clipPath><clipPath id="54949700ab"><path d="M 664.640625 676.449219 L 448.707031 676.449219 C 445.851562 676.449219 443.113281 675.3125 441.09375 673.292969 C 439.074219 671.273438 437.9375 668.535156 437.9375 665.679688 L 437.9375 606.285156 C 437.9375 603.429688 439.074219 600.691406 441.09375 598.671875 C 443.113281 596.652344 445.851562 595.515625 448.707031 595.515625 L 664.640625 595.515625 C 667.496094 595.515625 670.238281 596.652344 672.257812 598.671875 C 674.277344 600.691406 675.410156 603.429688 675.410156 606.285156 L 675.410156 665.679688 C 675.410156 668.535156 674.277344 671.273438 672.257812 673.292969 C 670.238281 675.3125 667.496094 676.449219 664.640625 676.449219 Z M 664.640625 676.449219 " clip-rule="nonzero"/></clipPath><clipPath id="02488bf656"><path d="M 0.839844 0.515625 L 238.410156 0.515625 L 238.410156 81.449219 L 0.839844 81.449219 Z M 0.839844 0.515625 " clip-rule="nonzero"/></clipPath><clipPath id="ac1ed4bf4c"><path d="M 227.640625 81.449219 L 11.707031 81.449219 C 8.851562 81.449219 6.113281 80.3125 4.09375 78.292969 C 2.074219 76.273438 0.9375 73.535156 0.9375 70.679688 L 0.9375 11.285156 C 0.9375 8.429688 2.074219 5.691406 4.09375 3.671875 C 6.113281 1.652344 8.851562 0.515625 11.707031 0.515625 L 227.640625 0.515625 C 230.496094 0.515625 233.238281 1.652344 235.257812 3.671875 C 237.277344 5.691406 238.410156 8.429688 238.410156 11.285156 L 238.410156 70.679688 C 238.410156 73.535156 237.277344 76.273438 235.257812 78.292969 C 233.238281 80.3125 230.496094 81.449219 227.640625 81.449219 Z M 227.640625 81.449219 " clip-rule="nonzero"/></clipPath><clipPath id="0f3a0e17fc"><rect x="0" width="239" y="0" height="82"/></clipPath><clipPath id="5f99715783"><path d="M 0.457031 595.382812 L 238.578125 595.382812 L 238.578125 676.015625 L 0.457031 676.015625 Z M 0.457031 595.382812 " clip-rule="nonzero"/></clipPath><clipPath id="ea1695d08b"><path d="M 0.457031 665.246094 L 0.457031 606.148438 C 0.457031 603.292969 1.59375 600.554688 3.613281 598.535156 C 5.632812 596.515625 8.371094 595.382812 11.226562 595.382812 L 227.597656 595.382812 C 230.453125 595.382812 233.191406 596.515625 235.210938 598.535156 C 237.230469 600.554688 238.363281 603.292969 238.363281 606.148438 L 238.363281 665.246094 C 238.363281 668.101562 237.230469 670.839844 235.210938 672.859375 C 233.191406 674.878906 230.453125 676.015625 227.597656 676.015625 L 11.226562 676.015625 C 8.371094 676.015625 5.632812 674.878906 3.613281 672.859375 C 1.59375 670.839844 0.457031 668.101562 0.457031 665.246094 Z M 0.457031 665.246094 " clip-rule="nonzero"/></clipPath><clipPath id="32ab86a153"><path d="M 0.457031 0.382812 L 238.398438 0.382812 L 238.398438 81.015625 L 0.457031 81.015625 Z M 0.457031 0.382812 " clip-rule="nonzero"/></clipPath><clipPath id="71171d8f42"><path d="M 0.457031 70.246094 L 0.457031 11.148438 C 0.457031 8.292969 1.59375 5.554688 3.613281 3.535156 C 5.632812 1.515625 8.371094 0.382812 11.226562 0.382812 L 227.597656 0.382812 C 230.453125 0.382812 233.191406 1.515625 235.210938 3.535156 C 237.230469 5.554688 238.363281 8.292969 238.363281 11.148438 L 238.363281 70.246094 C 238.363281 73.101562 237.230469 75.839844 235.210938 77.859375 C 233.191406 79.878906 230.453125 81.015625 227.597656 81.015625 L 11.226562 81.015625 C 8.371094 81.015625 5.632812 79.878906 3.613281 77.859375 C 1.59375 75.839844 0.457031 73.101562 0.457031 70.246094 Z M 0.457031 70.246094 " clip-rule="nonzero"/></clipPath><clipPath id="6aae46fcc1"><rect x="0" width="239" y="0" height="82"/></clipPath><clipPath id="434f3a07f0"><path d="M 0.460938 438.28125 L 81.390625 438.28125 L 81.390625 676.015625 L 0.460938 676.015625 Z M 0.460938 438.28125 " clip-rule="nonzero"/></clipPath><clipPath id="fe61feecea"><path d="M 0.460938 665.246094 L 0.460938 449.3125 C 0.460938 446.457031 1.59375 443.71875 3.613281 441.699219 C 5.632812 439.679688 8.371094 438.542969 11.230469 438.542969 L 70.621094 438.542969 C 73.476562 438.542969 76.21875 439.679688 78.238281 441.699219 C 80.257812 443.71875 81.390625 446.457031 81.390625 449.3125 L 81.390625 665.246094 C 81.390625 668.101562 80.257812 670.839844 78.238281 672.859375 C 76.21875 674.878906 73.476562 676.015625 70.621094 676.015625 L 11.230469 676.015625 C 8.371094 676.015625 5.632812 674.878906 3.613281 672.859375 C 1.59375 670.839844 0.460938 668.101562 0.460938 665.246094 Z M 0.460938 665.246094 " clip-rule="nonzero"/></clipPath><clipPath id="6ffd5c1422"><path d="M 0.460938 0.480469 L 81.390625 0.480469 L 81.390625 238.015625 L 0.460938 238.015625 Z M 0.460938 0.480469 " clip-rule="nonzero"/></clipPath><clipPath id="e7ed50be52"><path d="M 0.460938 227.246094 L 0.460938 11.3125 C 0.460938 8.457031 1.59375 5.71875 3.613281 3.699219 C 5.632812 1.679688 8.371094 0.542969 11.230469 0.542969 L 70.621094 0.542969 C 73.476562 0.542969 76.21875 1.679688 78.238281 3.699219 C 80.257812 5.71875 81.390625 8.457031 81.390625 11.3125 L 81.390625 227.246094 C 81.390625 230.101562 80.257812 232.839844 78.238281 234.859375 C 76.21875 236.878906 73.476562 238.015625 70.621094 238.015625 L 11.230469 238.015625 C 8.371094 238.015625 5.632812 236.878906 3.613281 234.859375 C 1.59375 232.839844 0.460938 230.101562 0.460938 227.246094 Z M 0.460938 227.246094 " clip-rule="nonzero"/></clipPath><clipPath id="b84cab5a5f"><rect x="0" width="82" y="0" height="239"/></clipPath><clipPath id="da8671a9ec"><rect x="0" width="676" y="0" height="677"/></clipPath></defs><g transform="matrix(1, 0, 0, 1, 382, 66)"><g clip-path="url(#da8671a9ec)"><g clip-path="url(#42c7b19f14)"><g clip-path="url(#d86cac48a6)"><g transform="matrix(1, 0, 0, 1, 0, 1)"><g clip-path="url(#fafba1f0e9)"><g clip-path="url(#ecdfcbd994)"><g clip-path="url(#65887bfab6)"><path fill="#333230" d="M 0.457031 0.0664062 L 81.089844 0.0664062 L 81.089844 237.871094 L 0.457031 237.871094 Z M 0.457031 0.0664062 " fill-opacity="1" fill-rule="nonzero"/></g></g></g></g></g></g><g clip-path="url(#bf009977e4)"><g clip-path="url(#530ca05960)"><g transform="matrix(1, 0, 0, 1, 0, 1)"><g clip-path="url(#75f77aca7d)"><g clip-path="url(#d6710f8bcb)"><g clip-path="url(#bb1fdb35ed)"><path fill="#333230" d="M 0.457031 0.0664062 L 237.875 0.0664062 L 237.875 80.996094 L 0.457031 80.996094 Z M 0.457031 0.0664062 " fill-opacity="1" fill-rule="nonzero"/></g></g></g></g></g></g><g clip-path="url(#77211b96e9)"><g clip-path="url(#23bf4a6ed5)"><g transform="matrix(1, 0, 0, 1, 437, 1)"><g clip-path="url(#2baa751783)"><g clip-path="url(#48079d0825)"><g clip-path="url(#cb40649d43)"><path fill="#333230" d="M 238.84375 0.0625 L 238.84375 80.699219 L 1.035156 80.699219 L 1.035156 0.0625 Z M 238.84375 0.0625 " fill-opacity="1" fill-rule="nonzero"/></g></g></g></g></g></g><g clip-path="url(#b476a2bc6b)"><g clip-path="url(#0c86b3794b)"><g transform="matrix(1, 0, 0, 1, 594, 1)"><g clip-path="url(#3035bc3522)"><g clip-path="url(#25f926fafe)"><g clip-path="url(#a460a6d222)"><path fill="#333230" d="M 81.84375 0.0625 L 81.84375 237.480469 L 0.910156 237.480469 L 0.910156 0.0625 Z M 81.84375 0.0625 " fill-opacity="1" fill-rule="nonzero"/></g></g></g></g></g></g><g clip-path="url(#e964a6e143)"><g clip-path="url(#509cc278ed)"><g transform="matrix(1, 0, 0, 1, 594, 438)"><g clip-path="url(#453ba71f8c)"><g clip-path="url(#7923023c72)"><g clip-path="url(#51a6ac1af2)"><path fill="#333230" d="M 81.40625 238.449219 L 0.773438 238.449219 L 0.773438 0.644531 L 81.40625 0.644531 Z M 81.40625 238.449219 " fill-opacity="1" fill-rule="nonzero"/></g></g></g></g></g></g><g clip-path="url(#11218f5211)"><g clip-path="url(#54949700ab)"><g transform="matrix(1, 0, 0, 1, 437, 595)"><g clip-path="url(#0f3a0e17fc)"><g clip-path="url(#02488bf656)"><g clip-path="url(#ac1ed4bf4c)"><path fill="#333230" d="M 238.410156 81.449219 L 0.992188 81.449219 L 0.992188 0.515625 L 238.410156 0.515625 Z M 238.410156 81.449219 " fill-opacity="1" fill-rule="nonzero"/></g></g></g></g></g></g><g clip-path="url(#5f99715783)"><g clip-path="url(#ea1695d08b)"><g transform="matrix(1, 0, 0, 1, 0, 595)"><g clip-path="url(#6aae46fcc1)"><g clip-path="url(#32ab86a153)"><g clip-path="url(#71171d8f42)"><path fill="#333230" d="M 0.457031 81.015625 L 0.457031 0.382812 L 238.261719 0.382812 L 238.261719 81.015625 Z M 0.457031 81.015625 " fill-opacity="1" fill-rule="nonzero"/></g></g></g></g></g></g><g clip-path="url(#434f3a07f0)"><g clip-path="url(#fe61feecea)"><g transform="matrix(1, 0, 0, 1, 0, 438)"><g clip-path="url(#b84cab5a5f)"><g clip-path="url(#6ffd5c1422)"><g clip-path="url(#e7ed50be52)"><path fill="#333230" d="M 0.460938 238.015625 L 0.460938 0.597656 L 81.390625 0.597656 L 81.390625 238.015625 Z M 0.460938 238.015625 " fill-opacity="1" fill-rule="nonzero"/></g></g></g></g></g></g><g fill="#333230" fill-opacity="1"><g transform="translate(105.061115, 485.585953)"><g><path d="M 204.40625 -98.8125 L 288.875 -98.8125 C 283.03125 -78.894531 273.398438 -61.234375 259.984375 -45.828125 C 246.578125 -30.421875 230.570312 -18.265625 211.96875 -9.359375 C 193.375 -0.460938 173.1875 3.984375 151.40625 3.984375 C 131.75 3.984375 113.222656 0.265625 95.828125 -7.171875 C 78.429688 -14.609375 63.15625 -24.898438 50 -38.046875 C 36.851562 -51.203125 26.5625 -66.410156 19.125 -83.671875 C 11.6875 -100.941406 7.96875 -119.535156 7.96875 -139.453125 C 7.96875 -159.378906 11.6875 -177.972656 19.125 -195.234375 C 26.5625 -212.503906 36.851562 -227.710938 50 -240.859375 C 63.15625 -254.015625 78.429688 -264.3125 95.828125 -271.75 C 113.222656 -279.1875 131.75 -282.90625 151.40625 -282.90625 C 173.1875 -282.90625 193.375 -278.453125 211.96875 -269.546875 C 230.570312 -260.648438 246.578125 -248.5 259.984375 -233.09375 C 273.398438 -217.6875 283.03125 -200.15625 288.875 -180.5 L 204.40625 -180.5 C 198.289062 -188.195312 190.648438 -194.4375 181.484375 -199.21875 C 172.328125 -204.007812 162.300781 -206.40625 151.40625 -206.40625 C 139.1875 -206.40625 128.03125 -203.347656 117.9375 -197.234375 C 107.84375 -191.117188 99.804688 -183.015625 93.828125 -172.921875 C 87.859375 -162.828125 84.875 -151.671875 84.875 -139.453125 C 84.875 -127.234375 87.859375 -116.078125 93.828125 -105.984375 C 99.804688 -95.890625 107.84375 -87.785156 117.9375 -81.671875 C 128.03125 -75.566406 139.1875 -72.515625 151.40625 -72.515625 C 162.300781 -72.515625 172.328125 -74.90625 181.484375 -79.6875 C 190.648438 -84.46875 198.289062 -90.84375 204.40625 -98.8125 Z M 204.40625 -98.8125 "/></g></g></g><g fill="#333230" fill-opacity="1"><g transform="translate(401.902643, 485.585953)"><g><path d="M 88.453125 -154.203125 C 102.535156 -154.203125 115.421875 -150.75 127.109375 -143.84375 C 138.796875 -136.9375 148.09375 -127.640625 155 -115.953125 C 161.90625 -104.265625 165.359375 -91.378906 165.359375 -77.296875 C 165.359375 -62.953125 161.90625 -49.9375 155 -38.25 C 148.09375 -26.5625 138.796875 -17.265625 127.109375 -10.359375 C 115.421875 -3.453125 102.535156 0 88.453125 0 L 11.953125 0 L 11.953125 -278.921875 L 88.453125 -278.921875 C 99.878906 -278.921875 110.304688 -276.128906 119.734375 -270.546875 C 129.160156 -264.972656 136.660156 -257.46875 142.234375 -248.03125 C 147.816406 -238.601562 150.609375 -228.179688 150.609375 -216.765625 C 150.609375 -205.078125 147.816406 -194.515625 142.234375 -185.078125 C 136.660156 -175.648438 129.160156 -168.144531 119.734375 -162.5625 C 110.304688 -156.988281 99.878906 -154.203125 88.453125 -154.203125 Z M 88.453125 -154.203125 "/></g></g></g></g></g></svg>